<?xml version="1.0" standalone="no"?>
<!DOCTYPE svg PUBLIC "-//W3C//DTD SVG 20010904//EN"
 "http://www.w3.org/TR/2001/REC-SVG-20010904/DTD/svg10.dtd">
<svg version="1.0" xmlns="http://www.w3.org/2000/svg"
 width="300.000000pt" height="450.000000pt" viewBox="0 0 300.000000 450.000000"
 preserveAspectRatio="xMidYMid meet">
<metadata>
Created by potrace 1.10, written by Peter Selinger 2001-2011
</metadata>
<g transform="translate(0.000000,450.000000) scale(0.100000,-0.100000)"
fill="#000000" stroke="none">
<path d="M909 4268 c-19 -50 -24 -82 -24 -154 0 -90 1 -92 40 -149 21 -32 69
-82 107 -112 47 -38 70 -65 79 -90 14 -44 7 -166 -16 -255 -23 -91 -75 -252
-83 -258 -4 -3 -12 -18 -17 -34 -6 -16 -16 -31 -23 -34 -18 -6 -5 49 16 65 20
16 31 86 31 205 1 163 -31 261 -108 331 -23 20 -43 37 -46 37 -3 0 5 -19 18
-43 44 -78 60 -153 65 -303 8 -237 -46 -432 -161 -582 -45 -59 -64 -63 -24 -5
51 74 70 133 75 231 4 82 -11 212 -25 212 -11 0 -123 -93 -157 -130 -51 -56
-93 -150 -105 -230 -5 -36 -6 -124 -4 -195 5 -105 1 -158 -16 -270 -38 -240
-68 -355 -141 -539 -200 -504 -285 -849 -310 -1261 -12 -191 2 -491 24 -513 7
-7 32 -16 56 -19 l42 -6 -7 44 c-27 161 -27 545 0 739 53 377 184 798 326
1050 157 280 331 486 463 551 63 30 80 34 172 37 58 3 170 -3 259 -13 183 -20
404 -16 525 10 183 40 385 125 542 229 94 61 251 217 320 316 73 105 122 199
106 205 -40 14 -274 46 -416 57 -196 15 -329 4 -503 -40 -286 -73 -538 -222
-744 -441 -136 -145 -226 -233 -330 -321 -123 -106 -254 -253 -337 -381 -57
-89 -91 -126 -73 -81 4 9 18 73 31 142 13 69 29 151 36 184 19 98 67 182 206
355 95 119 147 195 189 275 59 113 95 155 280 329 120 114 171 332 127 545
-17 82 -33 124 -34 87 -1 -51 -22 -205 -37 -264 -8 -36 -33 -103 -54 -149 -42
-90 -138 -256 -146 -249 -2 3 5 31 16 63 39 117 48 281 19 337 -7 13 -3 25 17
49 50 60 68 107 62 168 -10 110 -88 217 -216 293 -34 20 -64 37 -65 37 -2 0
-14 -28 -27 -62z m162 -75 c63 -60 109 -150 109 -211 0 -49 -43 -132 -69 -132
-25 0 -137 104 -165 151 -31 56 -36 147 -10 222 l16 47 35 -15 c19 -8 57 -36
84 -62z m254 -570 c-9 -32 -29 -78 -43 -103 -27 -47 -110 -135 -120 -126 -3 3
13 32 35 63 43 62 89 149 119 226 16 41 19 44 22 22 2 -14 -4 -51 -13 -82z
m-212 -277 c-32 -28 -39 -27 -23 3 6 12 20 21 31 21 18 0 17 -3 -8 -24z m1432
5 c44 -6 103 -12 130 -15 28 -3 59 -7 70 -9 11 -3 39 -8 63 -12 31 -5 42 -11
42 -25 0 -10 -28 -60 -61 -111 -101 -154 -261 -300 -440 -403 -48 -27 -259
-118 -259 -111 0 2 -19 -3 -42 -11 -60 -21 -170 -44 -253 -51 -95 -9 -279 -5
-307 6 -13 6 -16 10 -8 10 54 3 297 35 355 48 39 8 75 16 80 17 6 1 15 4 20 7
6 4 35 14 65 24 190 62 371 180 520 339 60 64 95 112 110 150 7 20 4 29 -16
49 -22 23 -37 26 -127 33 -261 20 -443 1 -650 -67 -110 -37 -306 -127 -369
-171 -16 -11 -28 -17 -28 -14 0 3 26 23 58 43 31 21 59 41 62 44 3 3 34 23 70
45 59 35 104 56 250 114 58 23 207 59 290 69 92 12 282 13 375 2z m-91 -101
c83 -6 152 -13 154 -15 10 -9 -104 -149 -180 -220 -96 -90 -163 -137 -276
-194 -232 -117 -529 -172 -822 -152 -96 6 -111 9 -90 18 14 6 124 58 246 116
314 150 453 204 698 272 32 9 56 18 54 20 -6 7 -211 -36 -298 -62 -105 -31
-358 -130 -545 -213 -208 -91 -246 -111 -239 -121 3 -6 12 -8 19 -6 7 3 19 -9
28 -27 l15 -33 -44 0 c-38 -1 -73 -5 -154 -19 -8 -1 9 20 39 47 30 27 60 49
65 49 6 0 45 32 86 71 269 252 499 381 795 446 145 31 247 36 449 23z m-1656
-88 c3 -84 -5 -100 -28 -58 -24 46 -55 42 -117 -17 -35 -33 -44 -27 -17 11 8
12 13 22 10 22 -8 0 32 48 77 93 59 57 71 49 75 -51z m-54 -138 c-1 -75 -18
-146 -46 -196 -21 -37 -90 -130 -93 -126 -2 2 0 57 5 123 5 84 14 134 28 166
23 53 80 122 96 116 7 -3 11 -33 10 -83z m-234 -959 c-5 -13 -20 -41 -32 -62
-21 -33 -49 -88 -53 -103 -8 -26 -30 -58 -38 -53 -5 3 -5 8 0 12 8 5 69 155
77 186 6 28 28 54 41 49 10 -4 12 -12 5 -29z m-380 -1497 c0 -39 -3 -69 -6
-65 -3 3 -6 32 -6 64 1 72 1 73 7 73 3 0 5 -32 5 -72z m14 -280 c5 -32 4 -48
-3 -48 -6 0 -11 10 -12 23 -1 12 -3 40 -4 62 -5 54 10 24 19 -37z"/>
<path d="M1212 3334 c-46 -23 -172 -143 -172 -164 0 -4 47 -8 105 -9 134 -2
182 16 260 101 30 32 55 63 55 67 0 11 -94 31 -149 31 -31 0 -65 -9 -99 -26z
m165 -31 c6 -15 -25 -48 -72 -78 -33 -21 -169 -32 -180 -15 -3 6 7 22 22 36
73 68 213 103 230 57z"/>
</g>
</svg>
